ply
format ascii 1.0
comment VCGLIB generated
element vertex 408
property float x
property float y
property float z
element face 716
property list uchar int vertex_indices
end_header
0 0.0325 0.007 
-0.00841162 0.0313926 0.007 
-0.00841162 0.0313926 0.1 
-0.01625 0.0281458 0.1 
-0.0197847 0.025784 0.007 
-0.022981 0.022981 0.007 
-0.0197847 0.025784 0.1 
-0.025784 0.0197847 0.007 
-0.0281458 0.01625 0.1 
-0.0300261 0.0124372 0.007 
-0.032222 0.0042421 0.007 
-0.032222 0.0042421 0.1 
-0.0325 0 0.007 
-0.032222 -0.0042421 0.007 
-0.0281458 -0.01625 0.1 
-0.025784 -0.0197848 0.1 
-0.022981 -0.022981 0.1 
-0.0197847 -0.025784 0.1 
-0.0197847 -0.025784 0.007 
-0.01625 -0.0281458 0.1 
-0.01625 -0.0281458 0.007 
-0.0124372 -0.0300261 0.007 
-0.0124372 -0.0300261 0.1 
-0.0042421 -0.032222 0.007 
0 -0.0325 0.007 
0 -0.0325 0.1 
0.0042421 -0.032222 0.007 
0.0124372 -0.0300261 0.007 
0.01625 -0.0281458 0.1 
0.0197847 -0.025784 0.1 
0.022981 -0.022981 0.1 
0.025784 -0.0197847 0.007 
0.032222 -0.0042421 0.007 
0.032222 -0.0042421 0.1 
0.0325 0 0.007 
0.032222 0.0042421 0.007 
0.0313926 0.00841162 0.007 
0.0300261 0.0124372 0.007 
0.0300261 0.0124372 0.1 
0.0281458 0.01625 0.007 
0.0281458 0.01625 0.1 
0.025784 0.0197847 0.1 
0.022981 0.022981 0.1 
0.0197847 0.025784 0.007 
0.0124372 0.0300261 0.007 
0.0042421 0.032222 0.007 
0.00841162 0.0313926 0.1 
0.0173245 0.0225777 0 
0.00736561 -0.0274888 0 
0.0225777 0.0173245 0 
0.0246458 0.0142293 0 
0.0142293 0.0246458 0 
0.0262923 -0.0108906 0 
0.0246458 -0.0142293 0 
-0.0173245 -0.0225777 0 
-0.0201232 -0.0201232 0 
-0.0142293 -0.0246458 0 
0.0201232 0.0201232 0 
-0.0108906 -0.0262923 0 
-0.00736561 -0.0274888 0 
0.00371459 -0.0282151 0 
0 -0.0284586 0 
-0.00371458 -0.0282151 0 
-0.0225777 -0.0173245 0 
0.0274888 0.00736562 0 
-0.0246458 -0.0142293 0 
-0.0262923 -0.0108906 0 
-0.0274888 -0.00736561 0 
0.0108906 0.0262923 0 
-0.0282151 -0.00371459 0 
0.0225777 -0.0173245 0 
0.0201232 -0.0201232 0 
-0.0246458 0.0142293 0 
-0.0225777 0.0173245 0 
0.0274888 -0.00736561 0 
0.0282151 -0.00371459 0 
0.0284586 0 0 
0.0282151 0.00371458 0 
0.0262923 0.0108906 0 
0.0108906 -0.0262923 0 
0.0173245 -0.0225777 0 
0.0142293 -0.0246458 0 
-0.0274888 0.00736562 0 
-0.0282151 0.00371458 0 
-0.0262923 0.0108906 0 
-0.0284585 0 0 
-0.0142293 0.0246458 0 
-0.0108906 0.0262923 0 
-0.0173245 0.0225777 0 
-0.0201232 0.0201232 0 
0.00371459 0.0282151 0 
0.00736561 0.0274888 0 
0 0.0284586 0 
-0.00371458 0.0282151 0 
-0.00736561 0.0274888 0 
0.00841162 -0.0313926 0.007 
0.00736561 -0.0274888 0 
0.0108906 -0.0262923 0 
0.01625 -0.0281458 0.007 
0.0142293 -0.0246458 0 
0.0197847 -0.025784 0.007 
0.0173245 -0.0225777 0 
0.022981 -0.022981 0.007 
0.0201232 -0.0201232 0 
0.0225777 -0.0173245 0 
0.0281458 -0.01625 0.007 
0.0246458 -0.0142293 0 
0.0300261 -0.0124372 0.007 
0.0262923 -0.0108906 0 
0.0313926 -0.00841162 0.007 
0.0274888 -0.00736561 0 
0.0282151 -0.00371459 0 
0.0284586 0 0 
0.0282151 0.00371458 0 
0.0274888 0.00736562 0 
0.0262923 0.0108906 0 
0.0246458 0.0142293 0 
0.0225777 0.0173245 0 
0.025784 0.0197847 0.007 
0.022981 0.022981 0.007 
0.0201232 0.0201232 0 
0.0173245 0.0225777 0 
0.0142293 0.0246458 0 
0.01625 0.0281458 0.007 
0.0108906 0.0262923 0 
0.00841162 0.0313926 0.007 
0.00736561 0.0274888 0 
0.00371459 0.0282151 0 
0 0.0284586 0 
-0.0042421 0.032222 0.007 
-0.00371458 0.0282151 0 
-0.00736561 0.0274888 0 
-0.0108906 0.0262923 0 
-0.0124372 0.0300261 0.007 
-0.01625 0.0281458 0.007 
-0.0142293 0.0246458 0 
-0.0173245 0.0225777 0 
-0.0201232 0.0201232 0 
-0.0225777 0.0173245 0 
-0.0281458 0.01625 0.007 
-0.0246458 0.0142293 0 
-0.0313926 0.00841162 0.007 
-0.0262923 0.0108906 0 
-0.0274888 0.00736562 0 
-0.0282151 0.00371458 0 
-0.0284585 0 0 
-0.0282151 -0.00371459 0 
-0.0313926 -0.00841162 0.007 
-0.0274888 -0.00736561 0 
-0.0300261 -0.0124372 0.007 
-0.0262923 -0.0108906 0 
-0.0281458 -0.01625 0.007 
-0.0246458 -0.0142293 0 
-0.025784 -0.0197847 0.007 
-0.0225777 -0.0173245 0 
-0.0201232 -0.0201232 0 
-0.022981 -0.022981 0.007 
-0.0173245 -0.0225777 0 
-0.0142293 -0.0246458 0 
-0.0108906 -0.0262923 0 
-0.00841162 -0.0313926 0.007 
-0.00736561 -0.0274888 0 
-0.00371458 -0.0282151 0 
0 -0.0284586 0 
0.00371459 -0.0282151 0 
-0.0124372 0.0300261 0.1 
-0.00773638 0.0263529 0.10866 
-0.025784 0.0197847 0.1 
-0.0207392 0.0179702 0.10866 
-0.022981 0.022981 0.1 
-0.0230892 0.0148373 0.10866 
-0.0218172 0.0167409 0.10866 
-0.024973 0.0114033 0.10866 
-0.0300261 0.0124372 0.1 
-0.027201 0.00390986 0.10866 
-0.0313926 0.00841162 0.1 
-0.0263529 0.00773638 0.10866 
-0.0325 -3.8147e-09 0.1 
-0.0300261 -0.0124372 0.1 
-0.0313926 -0.00841162 0.1 
-0.026563 -0.00711753 0.10866 
-0.032222 -0.0042421 0.1 
-0.0218172 -0.0167409 0.10866 
-0.0238157 -0.01375 0.10866 
-0.024973 -0.0114033 0.10866 
-0.0254067 -0.0105238 0.10866 
-0.0194454 -0.0194454 0.10866 
-0.0207392 -0.0179702 0.10866 
-0.0167409 -0.0218172 0.10866 
-0.0179702 -0.0207392 0.10866 
-0.01375 -0.0238157 0.10866 
-0.0148373 -0.0230892 0.10866 
-0.0105238 -0.0254067 0.10866 
-0.00841162 -0.0313926 0.1 
-0.00390986 -0.027201 0.10866 
0.0042421 -0.032222 0.1 
0 -0.0275 0.10866 
-0.0042421 -0.032222 0.1 
-0.00358947 -0.0272647 0.10866 
0.0124372 -0.0300261 0.1 
0.0105238 -0.0254067 0.10866 
0.00841162 -0.0313926 0.1 
0.00390986 -0.027201 0.10866 
0.00358947 -0.0272647 0.10866 
0.01375 -0.0238157 0.10866 
0.0114033 -0.024973 0.10866 
0.025784 -0.0197848 0.1 
0.0281458 -0.01625 0.1 
0.0218172 -0.0167409 0.10866 
0.0207392 -0.0179702 0.10866 
0.024973 -0.0114033 0.10866 
0.0300261 -0.0124372 0.1 
0.0313926 -0.00841162 0.1 
0.0263529 -0.00773639 0.10866 
0.032222 0.0042421 0.1 
0.0325 -3.8147e-09 0.1 
0.0275 -3.8147e-09 0.10866 
0.0313926 0.00841162 0.1 
0.026563 0.00711752 0.10866 
0.027201 0.00390986 0.10866 
0.0272647 0.00358947 0.10866 
0.0194454 0.0194454 0.10866 
0.0167409 0.0218172 0.10866 
0.0197847 0.025784 0.1 
0.01625 0.0281458 0.1 
0.0114033 0.024973 0.10866 
0.01375 0.0238157 0.10866 
0.0148373 0.0230892 0.10866 
0.0124372 0.0300261 0.1 
0.00773639 0.0263529 0.10866 
0.0105238 0.0254067 0.10866 
0.0042421 0.032222 0.1 
0.00390986 0.027201 0.10866 
-0.0042421 0.032222 0.1 
0 0.0325 0.1 
0 0.0275 0.10866 
0 -0.0275 0.115 
-0.00711752 -0.026563 0.10866 
-0.00774765 -0.0263861 0.115 
-0.00773638 -0.0263529 0.10866 
-0.0114239 -0.0250149 0.115 
-0.0114033 -0.024973 0.10866 
-0.0180087 -0.0207831 0.115 
-0.0148676 -0.0231345 0.115 
-0.0231345 -0.0148676 0.115 
-0.0230892 -0.0148373 0.10866 
-0.0250149 -0.0114239 0.115 
-0.0272201 -0.00391366 0.115 
-0.0263529 -0.00773639 0.10866 
-0.0263861 -0.00774765 0.115 
-0.0275 -3.8147e-09 0.115 
-0.0272647 -0.00358947 0.10866 
-0.027201 -0.00390987 0.10866 
-0.0275 -3.8147e-09 0.10866 
-0.026563 0.00711752 0.10866 
-0.0272647 0.00358947 0.10866 
-0.0250149 0.0114239 0.115 
-0.0254067 0.0105238 0.10866 
-0.0231345 0.0148676 0.115 
-0.0238157 0.01375 0.10866 
-0.0180087 0.0207831 0.115 
-0.0194454 0.0194454 0.10866 
-0.0167409 0.0218172 0.10866 
-0.0179702 0.0207392 0.10866 
-0.0148676 0.0231345 0.115 
-0.01375 0.0238157 0.10866 
-0.0148373 0.0230892 0.10866 
-0.0105238 0.0254067 0.10866 
-0.0114239 0.0250149 0.115 
-0.0114033 0.024973 0.10866 
-0.00711752 0.026563 0.10866 
0 0.0275 0.115 
-0.00391366 0.0272201 0.115 
-0.00390986 0.027201 0.10866 
0.00391366 0.0272201 0.115 
-0.00358947 0.0272647 0.10866 
0.00711752 0.026563 0.10866 
0.00358947 0.0272647 0.10866 
0.0179702 0.0207392 0.10866 
0.0207831 0.0180087 0.115 
0.0207392 0.0179702 0.10866 
0.0238157 0.01375 0.10866 
0.0230892 0.0148373 0.10866 
0.0218172 0.0167409 0.10866 
0.0254067 0.0105238 0.10866 
0.024973 0.0114033 0.10866 
0.0263861 0.00774764 0.115 
0.0263529 0.00773638 0.10866 
0.0275 -3.8147e-09 0.115 
0.0272201 -0.00391366 0.115 
0.0272647 -0.00358947 0.10866 
0.027201 -0.00390987 0.10866 
0.0254067 -0.0105238 0.10866 
0.026563 -0.00711753 0.10866 
0.0238157 -0.01375 0.10866 
0.0230892 -0.0148373 0.10866 
0.0194454 -0.0194454 0.10866 
0.0180087 -0.0207831 0.115 
0.0179702 -0.0207392 0.10866 
0.0148373 -0.0230892 0.10866 
0.0167409 -0.0218172 0.10866 
0.00774765 -0.0263861 0.115 
0.0114239 -0.0250149 0.115 
0.00773639 -0.0263529 0.10866 
0.00391366 -0.0272201 0.115 
0.00711752 -0.026563 0.10866 
0.0272201 0.00391365 0.115 
0.0250149 0.0114239 0.115 
0.0195458 0.0155872 0.115 
0.0231345 0.0148676 0.115 
0.0170043 0.0183263 0.115 
0.0180087 0.0207831 0.115 
0.0148676 0.0231345 0.115 
0.0114239 0.0250149 0.115 
0.00736888 0.0238893 0.115 
0.00774765 0.0263861 0.115 
-0.00372606 0.0247208 0.115 
-0.00774765 0.0263861 0.115 
-0.0108471 0.0225242 0.115 
-0.014083 0.020656 0.115 
-0.0170043 0.0183263 0.115 
-0.0195458 0.0155872 0.115 
-0.0216506 0.0125 0.115 
-0.0207831 0.0180087 0.115 
-0.0232718 0.00913352 0.115 
-0.0243732 0.00556302 0.115 
-0.0263861 0.00774764 0.115 
-0.0272201 0.00391365 0.115 
-0.0232718 -0.00913353 0.115 
-0.0216506 -0.0125 0.115 
-0.0207831 -0.0180087 0.115 
-0.0170043 -0.0183263 0.115 
-0.014083 -0.020656 0.115 
-0.00372606 -0.0247208 0.115 
-0.00391366 -0.0272201 0.115 
0 -0.025 0.115 
0.00372606 -0.0247208 0.115 
0.00736888 -0.0238893 0.115 
0.0108471 -0.0225242 0.115 
0.014083 -0.020656 0.115 
0.0148676 -0.0231345 0.115 
0.0207831 -0.0180087 0.115 
0.0216506 -0.0125 0.115 
0.0231345 -0.0148676 0.115 
0.0250149 -0.0114239 0.115 
0.0263861 -0.00774765 0.115 
0 -0.025 0.11 
0.00372606 -0.0247208 0.11 
0.0170043 -0.0183263 0.115 
0.014083 -0.020656 0.11 
0.0170043 -0.0183263 0.11 
0.0195458 -0.0155872 0.115 
0.0232718 -0.00913353 0.115 
0.0243732 -0.00556303 0.115 
0.0243732 -0.00556303 0.11 
0.0249301 -0.00186826 0.115 
0.0249301 0.00186825 0.115 
0.0249301 -0.00186826 0.11 
0.0243732 0.00556302 0.115 
0.0243732 0.00556302 0.11 
0.0232718 0.00913352 0.115 
0.0232718 0.00913352 0.11 
0.0216506 0.0125 0.115 
0.0170043 0.0183263 0.11 
0.014083 0.020656 0.115 
0.014083 0.020656 0.11 
0.0108471 0.0225242 0.115 
0.00372606 0.0247208 0.115 
0 0.025 0.115 
0 0.025 0.11 
-0.00372606 0.0247208 0.11 
-0.00736888 0.0238893 0.115 
-0.0108471 0.0225242 0.11 
-0.0195458 0.0155872 0.11 
-0.0232718 0.00913352 0.11 
-0.0249301 0.00186825 0.115 
-0.0249301 0.00186825 0.11 
-0.0249301 -0.00186826 0.115 
-0.0243732 -0.00556303 0.115 
-0.0243732 -0.00556303 0.11 
-0.0216506 -0.0125 0.11 
-0.0195458 -0.0155872 0.115 
-0.014083 -0.020656 0.11 
-0.0108471 -0.0225242 0.115 
-0.00736888 -0.0238893 0.115 
-0.00372606 -0.0247208 0.11 
0.0195458 0.0155872 0.11 
0.0216506 0.0125 0.11 
0.00736888 0.0238893 0.11 
0.00372606 0.0247208 0.11 
-0.0243732 0.00556302 0.11 
0.0232718 -0.00913353 0.11 
-0.0249301 -0.00186826 0.11 
-0.0232718 -0.00913353 0.11 
0.0108471 0.0225242 0.11 
0.0195458 -0.0155872 0.11 
0.0216506 -0.0125 0.11 
0.0108471 -0.0225242 0.11 
0.0249301 0.00186825 0.11 
-0.0216506 0.0125 0.11 
-0.0195458 -0.0155872 0.11 
-0.0170043 -0.0183263 0.11 
-0.0170043 0.0183263 0.11 
-0.014083 0.020656 0.11 
-0.00736888 0.0238893 0.11 
0.00736888 -0.0238893 0.11 
-0.00736888 -0.0238893 0.11 
-0.0108471 -0.0225242 0.11 
3 231 0 234 
3 234 0 129 
3 234 129 233 
3 233 129 1 
3 233 1 2 
3 2 1 133 
3 2 133 165 
3 165 133 134 
3 165 134 3 
3 3 134 4 
3 3 4 6 
3 6 4 5 
3 6 5 169 
3 169 5 7 
3 169 7 167 
3 167 7 139 
3 167 139 8 
3 8 139 9 
3 8 9 173 
3 173 9 141 
3 173 141 175 
3 175 141 10 
3 175 10 11 
3 11 10 12 
3 11 12 177 
3 177 12 13 
3 177 13 181 
3 181 13 147 
3 181 147 179 
3 179 147 149 
3 179 149 178 
3 178 149 151 
3 178 151 14 
3 14 151 153 
3 14 153 15 
3 15 153 156 
3 15 156 16 
3 16 156 18 
3 16 18 17 
3 17 18 20 
3 17 20 19 
3 19 20 21 
3 19 21 22 
3 22 21 160 
3 22 160 193 
3 193 160 23 
3 193 23 197 
3 197 23 24 
3 197 24 25 
3 25 24 26 
3 25 26 195 
3 195 26 95 
3 195 95 201 
3 201 95 27 
3 201 27 199 
3 199 27 98 
3 199 98 28 
3 28 98 100 
3 28 100 29 
3 29 100 102 
3 29 102 30 
3 30 102 31 
3 30 31 206 
3 206 31 105 
3 206 105 207 
3 207 105 107 
3 207 107 211 
3 211 107 109 
3 211 109 212 
3 212 109 32 
3 212 32 33 
3 33 32 34 
3 33 34 215 
3 215 34 35 
3 215 35 214 
3 214 35 36 
3 214 36 217 
3 217 36 37 
3 217 37 38 
3 38 37 39 
3 38 39 40 
3 40 39 118 
3 40 118 41 
3 41 118 119 
3 41 119 42 
3 42 119 43 
3 42 43 223 
3 223 43 123 
3 223 123 224 
3 224 123 44 
3 224 44 228 
3 228 44 125 
3 228 125 46 
3 46 125 45 
3 46 45 231 
3 231 45 0 
3 47 57 55 
3 79 48 60 
3 49 50 78 
3 68 51 47 
3 52 53 70 
3 54 55 56 
3 56 55 57 
3 56 57 58 
3 58 57 60 
3 58 60 59 
3 59 60 61 
3 59 61 62 
3 47 55 68 
3 68 55 63 
3 68 63 65 
3 78 64 77 
3 65 66 68 
3 68 66 67 
3 68 67 69 
3 52 70 78 
3 78 70 71 
3 78 71 80 
3 84 72 68 
3 68 72 73 
3 68 87 94 
3 74 52 75 
3 75 52 78 
3 75 78 76 
3 76 78 77 
3 57 49 60 
3 60 49 78 
3 60 78 79 
3 79 78 80 
3 79 80 81 
3 82 84 83 
3 83 84 68 
3 83 68 85 
3 85 68 69 
3 86 87 88 
3 88 87 68 
3 88 68 89 
3 89 68 73 
3 90 91 92 
3 92 91 68 
3 92 68 93 
3 93 68 94 
3 26 164 95 
3 95 164 96 
3 95 96 27 
3 27 96 97 
3 27 97 98 
3 98 97 99 
3 98 99 100 
3 100 99 101 
3 100 101 102 
3 102 101 103 
3 102 103 31 
3 31 103 104 
3 31 104 105 
3 105 104 106 
3 105 106 107 
3 107 106 108 
3 107 108 109 
3 109 108 110 
3 109 110 32 
3 32 110 111 
3 32 111 34 
3 34 111 112 
3 34 112 35 
3 35 112 113 
3 35 113 36 
3 36 113 114 
3 36 114 37 
3 37 114 115 
3 37 115 39 
3 39 115 116 
3 39 116 118 
3 118 116 117 
3 118 117 119 
3 119 117 120 
3 119 120 43 
3 43 120 121 
3 43 121 123 
3 123 121 122 
3 123 122 44 
3 44 122 124 
3 44 124 125 
3 125 124 126 
3 125 126 45 
3 45 126 127 
3 45 127 0 
3 0 127 128 
3 0 128 129 
3 129 128 130 
3 129 130 1 
3 1 130 131 
3 1 131 133 
3 133 131 132 
3 133 132 134 
3 134 132 135 
3 134 135 4 
3 4 135 136 
3 4 136 5 
3 5 136 137 
3 5 137 7 
3 7 137 138 
3 7 138 139 
3 139 138 140 
3 139 140 9 
3 9 140 142 
3 9 142 141 
3 141 142 143 
3 141 143 10 
3 10 143 144 
3 10 144 12 
3 12 144 145 
3 12 145 13 
3 13 145 146 
3 13 146 147 
3 147 146 148 
3 147 148 149 
3 149 148 150 
3 149 150 151 
3 151 150 152 
3 151 152 153 
3 153 152 154 
3 153 154 156 
3 156 154 155 
3 156 155 18 
3 18 155 157 
3 18 157 20 
3 20 157 158 
3 20 158 21 
3 21 158 159 
3 21 159 160 
3 160 159 161 
3 160 161 23 
3 23 161 162 
3 23 162 24 
3 24 162 163 
3 24 163 26 
3 26 163 164 
3 233 2 270 
3 165 267 2 
3 2 267 166 
3 2 166 270 
3 3 6 262 
3 262 266 3 
3 3 266 265 
3 3 265 165 
3 165 265 269 
3 165 269 267 
3 167 168 169 
3 169 168 261 
3 169 261 6 
3 6 261 263 
3 6 263 262 
3 8 170 167 
3 167 170 171 
3 167 171 168 
3 173 172 8 
3 8 172 259 
3 8 259 170 
3 175 176 173 
3 173 176 257 
3 173 257 172 
3 11 174 175 
3 175 174 254 
3 175 254 176 
3 181 251 177 
3 177 251 253 
3 177 253 11 
3 11 253 255 
3 11 255 174 
3 179 178 185 
3 185 248 179 
3 179 248 180 
3 179 180 181 
3 181 180 252 
3 181 252 251 
3 14 15 182 
3 182 245 14 
3 14 245 183 
3 14 183 178 
3 178 183 184 
3 178 184 185 
3 17 189 16 
3 16 189 186 
3 16 186 15 
3 15 186 187 
3 15 187 182 
3 19 191 17 
3 17 191 188 
3 17 188 189 
3 22 241 19 
3 19 241 190 
3 19 190 191 
3 193 239 22 
3 22 239 192 
3 22 192 241 
3 197 194 193 
3 193 194 237 
3 193 237 239 
3 195 203 25 
3 25 203 196 
3 25 196 197 
3 197 196 198 
3 197 198 194 
3 201 199 200 
3 200 303 201 
3 201 303 305 
3 201 305 195 
3 195 305 202 
3 195 202 203 
3 28 29 300 
3 300 299 28 
3 28 299 204 
3 28 204 199 
3 199 204 205 
3 199 205 200 
3 206 209 30 
3 30 209 296 
3 30 296 29 
3 29 296 298 
3 29 298 300 
3 207 295 206 
3 206 295 208 
3 206 208 209 
3 211 210 207 
3 207 210 294 
3 207 294 295 
3 212 213 211 
3 211 213 292 
3 211 292 210 
3 33 291 212 
3 212 291 293 
3 212 293 213 
3 214 220 215 
3 215 220 216 
3 215 216 33 
3 33 216 290 
3 33 290 291 
3 217 38 284 
3 284 287 217 
3 217 287 218 
3 217 218 214 
3 214 218 219 
3 214 219 220 
3 40 41 283 
3 283 282 40 
3 40 282 281 
3 40 281 38 
3 38 281 285 
3 38 285 284 
3 223 278 42 
3 42 278 221 
3 42 221 41 
3 41 221 280 
3 41 280 283 
3 224 227 223 
3 223 227 222 
3 223 222 278 
3 228 225 224 
3 224 225 226 
3 224 226 227 
3 46 229 228 
3 228 229 230 
3 228 230 225 
3 231 232 46 
3 46 232 276 
3 46 276 229 
3 270 273 233 
3 233 273 275 
3 233 275 234 
3 234 275 235 
3 234 235 231 
3 231 235 277 
3 231 277 232 
3 236 334 198 
3 238 237 334 
3 334 237 194 
3 334 194 198 
3 240 192 238 
3 238 192 239 
3 238 239 237 
3 243 190 240 
3 240 190 241 
3 240 241 192 
3 242 188 243 
3 243 188 191 
3 243 191 190 
3 330 186 242 
3 242 186 189 
3 242 189 188 
3 244 182 330 
3 330 182 187 
3 330 187 186 
3 246 183 244 
3 244 183 245 
3 244 245 182 
3 249 185 246 
3 246 185 184 
3 246 184 183 
3 247 180 249 
3 249 180 248 
3 249 248 185 
3 250 251 247 
3 247 251 252 
3 247 252 180 
3 327 255 250 
3 250 255 253 
3 250 253 251 
3 326 254 327 
3 327 254 174 
3 327 174 255 
3 256 257 326 
3 326 257 176 
3 326 176 254 
3 258 259 256 
3 256 259 172 
3 256 172 257 
3 323 171 258 
3 258 171 170 
3 258 170 259 
3 260 261 323 
3 323 261 168 
3 323 168 171 
3 264 262 260 
3 260 262 263 
3 260 263 261 
3 268 265 264 
3 264 265 266 
3 264 266 262 
3 317 267 268 
3 268 267 269 
3 268 269 265 
3 272 270 317 
3 317 270 166 
3 317 166 267 
3 271 275 272 
3 272 275 273 
3 272 273 270 
3 274 277 271 
3 271 277 235 
3 271 235 275 
3 315 276 274 
3 274 276 232 
3 274 232 277 
3 313 230 315 
3 315 230 229 
3 315 229 276 
3 312 226 313 
3 313 226 225 
3 313 225 230 
3 311 222 312 
3 312 222 227 
3 312 227 226 
3 279 221 311 
3 311 221 278 
3 311 278 222 
3 309 283 279 
3 279 283 280 
3 279 280 221 
3 307 281 309 
3 309 281 282 
3 309 282 283 
3 286 284 307 
3 307 284 285 
3 307 285 281 
3 306 218 286 
3 286 218 287 
3 286 287 284 
3 288 220 306 
3 306 220 219 
3 306 219 218 
3 289 290 288 
3 288 290 216 
3 288 216 220 
3 345 293 289 
3 289 293 291 
3 289 291 290 
3 344 292 345 
3 345 292 213 
3 345 213 293 
3 343 294 344 
3 344 294 210 
3 344 210 292 
3 341 208 343 
3 343 208 295 
3 343 295 294 
3 297 296 341 
3 341 296 209 
3 341 209 208 
3 340 300 297 
3 297 300 298 
3 297 298 296 
3 302 204 340 
3 340 204 299 
3 340 299 300 
3 301 200 302 
3 302 200 205 
3 302 205 204 
3 304 305 301 
3 301 305 303 
3 301 303 200 
3 198 196 236 
3 236 196 203 
3 236 203 304 
3 304 203 202 
3 304 202 305 
3 355 288 356 
3 356 288 306 
3 356 306 358 
3 358 306 286 
3 358 286 360 
3 360 286 307 
3 360 307 362 
3 362 307 309 
3 362 309 308 
3 308 309 279 
3 308 279 310 
3 310 279 311 
3 310 311 364 
3 364 311 312 
3 364 312 366 
3 366 312 313 
3 366 313 314 
3 314 313 315 
3 314 315 367 
3 367 315 274 
3 367 274 368 
3 368 274 271 
3 368 271 316 
3 316 271 272 
3 316 272 371 
3 371 272 317 
3 371 317 318 
3 318 317 268 
3 318 268 319 
3 319 268 264 
3 319 264 320 
3 320 264 260 
3 320 260 321 
3 321 260 323 
3 321 323 322 
3 322 323 258 
3 322 258 324 
3 324 258 256 
3 324 256 325 
3 325 256 326 
3 325 326 375 
3 326 327 375 
3 375 327 250 
3 375 250 377 
3 377 250 247 
3 377 247 378 
3 378 247 249 
3 378 249 328 
3 328 249 246 
3 328 246 329 
3 329 246 244 
3 329 244 381 
3 381 244 330 
3 381 330 331 
3 331 330 242 
3 331 242 332 
3 332 242 243 
3 332 243 383 
3 383 243 240 
3 383 240 384 
3 384 240 238 
3 384 238 333 
3 333 238 334 
3 333 334 335 
3 335 334 236 
3 335 236 336 
3 336 236 304 
3 336 304 337 
3 337 304 301 
3 337 301 338 
3 338 301 302 
3 338 302 339 
3 339 302 340 
3 339 340 348 
3 348 340 297 
3 348 297 351 
3 351 297 341 
3 351 341 342 
3 342 341 343 
3 342 343 352 
3 352 343 344 
3 352 344 353 
3 353 344 345 
3 353 345 355 
3 355 345 289 
3 355 289 288 
3 385 335 346 
3 346 335 336 
3 346 336 347 
3 347 336 337 
3 347 337 405 
3 405 337 338 
3 405 338 397 
3 397 338 339 
3 397 339 349 
3 349 339 348 
3 349 348 350 
3 350 348 351 
3 350 351 395 
3 395 351 342 
3 395 342 396 
3 396 342 352 
3 396 352 391 
3 391 352 353 
3 391 353 354 
3 354 353 355 
3 354 355 357 
3 357 355 356 
3 357 356 398 
3 398 356 358 
3 398 358 359 
3 359 358 360 
3 359 360 361 
3 361 360 362 
3 361 362 387 
3 387 362 308 
3 387 308 386 
3 386 308 310 
3 386 310 363 
3 363 310 364 
3 363 364 365 
3 365 364 366 
3 365 366 394 
3 394 366 314 
3 394 314 388 
3 388 314 367 
3 388 367 389 
3 389 367 368 
3 389 368 369 
3 369 368 316 
3 369 316 370 
3 370 316 371 
3 370 371 404 
3 404 371 318 
3 404 318 372 
3 372 318 319 
3 372 319 403 
3 403 319 320 
3 403 320 402 
3 402 320 321 
3 402 321 373 
3 373 321 322 
3 373 322 399 
3 399 322 324 
3 399 324 374 
3 374 324 325 
3 374 325 390 
3 390 325 375 
3 390 375 376 
3 376 375 377 
3 376 377 392 
3 392 377 378 
3 392 378 379 
3 379 378 328 
3 379 328 393 
3 393 328 329 
3 393 329 380 
3 380 329 381 
3 380 381 400 
3 400 381 331 
3 400 331 401 
3 401 331 332 
3 401 332 382 
3 382 332 383 
3 382 383 407 
3 407 383 384 
3 407 384 406 
3 406 384 333 
3 406 333 385 
3 385 333 335 
3 386 363 387 
3 387 363 399 
3 388 389 369 
3 390 376 374 
3 374 376 396 
3 374 396 399 
3 376 405 397 
3 396 391 399 
3 399 391 354 
3 399 354 357 
3 376 392 405 
3 405 392 379 
3 405 379 393 
3 363 365 399 
3 399 365 394 
3 399 394 388 
3 388 369 399 
3 399 369 370 
3 399 370 404 
3 395 396 350 
3 350 396 376 
3 350 376 349 
3 349 376 397 
3 361 387 359 
3 359 387 399 
3 359 399 398 
3 398 399 357 
3 393 380 405 
3 405 380 400 
3 405 400 401 
3 402 373 403 
3 403 373 399 
3 403 399 372 
3 372 399 404 
3 347 405 346 
3 346 405 401 
3 346 401 385 
3 385 401 382 
3 385 382 406 
3 406 382 407 
